<svg width="12" height="13" viewBox="0 0 12 13" fill="none" xmlns="http://www.w3.org/2000/svg">
<path d="M6 4.625V3.5" stroke="#805120" stroke-linecap="round" stroke-linejoin="round"/>
<path d="M6 3.5C8.16563 2.75 6 0.875 6 0.875C6 0.875 3.75 2.75 6 3.5Z" stroke="#805120" stroke-linecap="round" stroke-linejoin="round"/>
<path d="M7.59375 6.40625C7.59375 6.82894 7.42584 7.23432 7.12695 7.5332C6.82807 7.83209 6.42269 8 6 8C5.57731 8 5.17193 7.83209 4.87305 7.5332C4.57416 7.23432 4.40625 6.82894 4.40625 6.40625" stroke="#805120" stroke-linecap="round" stroke-linejoin="round"/>
<path d="M4.40626 6.40626C4.40635 6.82332 4.24295 7.22381 3.95112 7.52177C3.6593 7.81973 3.2623 7.99142 2.84532 8.00001C1.95001 8.01876 1.21876 7.26876 1.21876 6.37345V5.75001C1.21814 5.6021 1.24682 5.45553 1.30313 5.31876C1.35945 5.18199 1.44229 5.05772 1.54688 4.95313C1.65147 4.84854 1.77574 4.7657 1.91251 4.70938C2.04928 4.65307 2.19585 4.62439 2.34376 4.62501H9.65626C9.80417 4.62439 9.95074 4.65307 10.0875 4.70938C10.2243 4.7657 10.3485 4.84854 10.4531 4.95313C10.5577 5.05772 10.6406 5.18199 10.6969 5.31876C10.7532 5.45553 10.7819 5.6021 10.7813 5.75001V6.37345C10.7813 7.26876 10.05 8.01876 9.1547 8.00001C8.73772 7.99142 8.34072 7.81973 8.0489 7.52177C7.75707 7.22381 7.59367 6.82332 7.59376 6.40626" stroke="#805120" stroke-linecap="round" stroke-linejoin="round"/>
<path d="M10.125 7.68594V10.25C10.125 10.3495 10.0855 10.4448 10.0152 10.5152C9.94484 10.5855 9.84946 10.625 9.75 10.625H2.25C2.15054 10.625 2.05516 10.5855 1.98484 10.5152C1.91451 10.4448 1.875 10.3495 1.875 10.25V7.68594" stroke="#805120" stroke-linecap="round" stroke-linejoin="round"/>
</svg>
