<svg width="12" height="13" viewBox="0 0 12 13" fill="none" xmlns="http://www.w3.org/2000/svg">
<path d="M1.59844 7.0953C1.17813 6.38719 1.03082 5.54999 1.18415 4.74094C1.33748 3.93189 1.78091 3.20666 2.43116 2.70144C3.08141 2.19622 3.89375 1.94578 4.71559 1.99716C5.53744 2.04854 6.31226 2.39819 6.89453 2.98046C7.47679 3.56273 7.82645 4.33755 7.87783 5.15939C7.92921 5.98124 7.67877 6.79357 7.17355 7.44383C6.66833 8.09408 5.94309 8.53751 5.13404 8.69084C4.32499 8.84417 3.4878 8.69685 2.77969 8.27655L1.6125 8.60936C1.56441 8.62289 1.51358 8.62335 1.46525 8.61072C1.41692 8.59809 1.37283 8.57281 1.3375 8.53749C1.30218 8.50216 1.2769 8.45807 1.26427 8.40974C1.25163 8.3614 1.2521 8.31058 1.26562 8.26249L1.59844 7.0953Z" stroke="#805120" stroke-linecap="round" stroke-linejoin="round"/>
<path d="M4.31718 8.74532C4.48239 9.21635 4.75016 9.6448 5.10115 9.99971C5.45214 10.3546 5.87758 10.6271 6.34674 10.7976C6.81589 10.968 7.31705 11.0321 7.814 10.9853C8.31095 10.9384 8.79129 10.7817 9.22031 10.5266V10.5266L10.3875 10.8594C10.4356 10.8729 10.4864 10.8734 10.5347 10.8607C10.5831 10.8481 10.6272 10.8228 10.6625 10.7875C10.6978 10.7522 10.7231 10.7081 10.7357 10.6598C10.7484 10.6114 10.7479 10.5606 10.7344 10.5125L10.4016 9.34532C10.6987 8.84658 10.8619 8.27954 10.8755 7.69916C10.8891 7.11878 10.7525 6.54473 10.479 6.03264C10.2055 5.52056 9.8044 5.0878 9.3145 4.7763C8.8246 4.46481 8.26255 4.28513 7.68281 4.2547" stroke="#805120" stroke-linecap="round" stroke-linejoin="round"/>
</svg>
